<mxfile host="app.diagrams.net" modified="2022-05-24T15:51:41.540Z" agent="5.0 (Windows)" etag="Q_OnlN-P4t1oqNnevaYL" version="18.1.2" type="github">
  <diagram id="UkKoUpquB2zs1tKFholc" name="Page-1">
    <mxGraphModel dx="1173" dy="734" grid="1" gridSize="10" guides="1" tooltips="1" connect="1" arrows="1" fold="1" page="1" pageScale="1" pageWidth="1654" pageHeight="1169" math="0" shadow="0">
      <root>
        <mxCell id="0" />
        <mxCell id="1" parent="0" />
        <mxCell id="_PZYunoZqGTAglqlT3PF-14" style="edgeStyle=orthogonalEdgeStyle;rounded=0;orthogonalLoop=1;jettySize=auto;html=1;" edge="1" parent="1" source="_PZYunoZqGTAglqlT3PF-1" target="_PZYunoZqGTAglqlT3PF-9">
          <mxGeometry relative="1" as="geometry" />
        </mxCell>
        <mxCell id="_PZYunoZqGTAglqlT3PF-1" value="Maker" style="rounded=1;whiteSpace=wrap;html=1;" vertex="1" parent="1">
          <mxGeometry x="520" y="350" width="120" height="60" as="geometry" />
        </mxCell>
        <mxCell id="_PZYunoZqGTAglqlT3PF-5" value="" style="group" vertex="1" connectable="0" parent="1">
          <mxGeometry x="520" y="180" width="120" height="110" as="geometry" />
        </mxCell>
        <mxCell id="_PZYunoZqGTAglqlT3PF-3" value="Maker configs" style="shape=document;whiteSpace=wrap;html=1;boundedLbl=1;labelPosition=center;verticalLabelPosition=top;align=center;verticalAlign=bottom;" vertex="1" parent="_PZYunoZqGTAglqlT3PF-5">
          <mxGeometry width="120" height="110" as="geometry" />
        </mxCell>
        <mxCell id="_PZYunoZqGTAglqlT3PF-4" value="MAKER_LEI = XXXX" style="text;html=1;strokeColor=none;fillColor=none;align=center;verticalAlign=middle;whiteSpace=wrap;rounded=0;" vertex="1" parent="_PZYunoZqGTAglqlT3PF-5">
          <mxGeometry x="30" y="20" width="70" height="30" as="geometry" />
        </mxCell>
        <mxCell id="_PZYunoZqGTAglqlT3PF-6" style="edgeStyle=orthogonalEdgeStyle;rounded=0;orthogonalLoop=1;jettySize=auto;html=1;entryX=0.5;entryY=0;entryDx=0;entryDy=0;" edge="1" parent="1" source="_PZYunoZqGTAglqlT3PF-3" target="_PZYunoZqGTAglqlT3PF-1">
          <mxGeometry relative="1" as="geometry" />
        </mxCell>
        <mxCell id="_PZYunoZqGTAglqlT3PF-8" style="edgeStyle=orthogonalEdgeStyle;rounded=0;orthogonalLoop=1;jettySize=auto;html=1;" edge="1" parent="1" source="_PZYunoZqGTAglqlT3PF-7" target="_PZYunoZqGTAglqlT3PF-1">
          <mxGeometry relative="1" as="geometry" />
        </mxCell>
        <mxCell id="_PZYunoZqGTAglqlT3PF-7" value="Fill" style="ellipse;shape=cloud;whiteSpace=wrap;html=1;" vertex="1" parent="1">
          <mxGeometry x="310" y="340" width="120" height="80" as="geometry" />
        </mxCell>
        <mxCell id="_PZYunoZqGTAglqlT3PF-13" value="" style="group" vertex="1" connectable="0" parent="1">
          <mxGeometry x="750" y="315" width="197" height="130" as="geometry" />
        </mxCell>
        <mxCell id="_PZYunoZqGTAglqlT3PF-9" value="internal binary fill message" style="ellipse;shape=cloud;whiteSpace=wrap;html=1;labelPosition=center;verticalLabelPosition=top;align=center;verticalAlign=bottom;" vertex="1" parent="_PZYunoZqGTAglqlT3PF-13">
          <mxGeometry width="197" height="130" as="geometry" />
        </mxCell>
        <mxCell id="_PZYunoZqGTAglqlT3PF-12" value="&lt;div&gt;UTI generated from MAKER_LEI&lt;br&gt;&lt;/div&gt;" style="text;html=1;strokeColor=none;fillColor=none;align=center;verticalAlign=middle;whiteSpace=wrap;rounded=0;" vertex="1" parent="_PZYunoZqGTAglqlT3PF-13">
          <mxGeometry x="68.5" y="50" width="60" height="30" as="geometry" />
        </mxCell>
        <mxCell id="_PZYunoZqGTAglqlT3PF-20" style="edgeStyle=orthogonalEdgeStyle;rounded=0;orthogonalLoop=1;jettySize=auto;html=1;" edge="1" parent="1" source="_PZYunoZqGTAglqlT3PF-15" target="_PZYunoZqGTAglqlT3PF-19">
          <mxGeometry relative="1" as="geometry" />
        </mxCell>
        <mxCell id="_PZYunoZqGTAglqlT3PF-15" value="DropCopy" style="rounded=1;whiteSpace=wrap;html=1;" vertex="1" parent="1">
          <mxGeometry x="788.5" y="500" width="120" height="60" as="geometry" />
        </mxCell>
        <mxCell id="_PZYunoZqGTAglqlT3PF-16" style="edgeStyle=orthogonalEdgeStyle;rounded=0;orthogonalLoop=1;jettySize=auto;html=1;entryX=0.5;entryY=0;entryDx=0;entryDy=0;" edge="1" parent="1" source="_PZYunoZqGTAglqlT3PF-9" target="_PZYunoZqGTAglqlT3PF-15">
          <mxGeometry relative="1" as="geometry" />
        </mxCell>
        <mxCell id="_PZYunoZqGTAglqlT3PF-17" value="Backoffice" style="rounded=1;whiteSpace=wrap;html=1;" vertex="1" parent="1">
          <mxGeometry x="788.5" y="890" width="120" height="60" as="geometry" />
        </mxCell>
        <mxCell id="_PZYunoZqGTAglqlT3PF-21" style="edgeStyle=orthogonalEdgeStyle;rounded=0;orthogonalLoop=1;jettySize=auto;html=1;entryX=0.5;entryY=0;entryDx=0;entryDy=0;" edge="1" parent="1" source="_PZYunoZqGTAglqlT3PF-19" target="_PZYunoZqGTAglqlT3PF-17">
          <mxGeometry relative="1" as="geometry" />
        </mxCell>
        <mxCell id="_PZYunoZqGTAglqlT3PF-19" value="FIX" style="ellipse;shape=cloud;whiteSpace=wrap;html=1;labelPosition=right;verticalLabelPosition=middle;align=left;verticalAlign=middle;" vertex="1" parent="1">
          <mxGeometry x="744.25" y="600" width="208.5" height="140" as="geometry" />
        </mxCell>
        <mxCell id="_PZYunoZqGTAglqlT3PF-22" value="5100=UTI" style="text;html=1;strokeColor=none;fillColor=none;align=center;verticalAlign=middle;whiteSpace=wrap;rounded=0;" vertex="1" parent="1">
          <mxGeometry x="798.5" y="660" width="100" height="30" as="geometry" />
        </mxCell>
        <mxCell id="_PZYunoZqGTAglqlT3PF-24" style="edgeStyle=orthogonalEdgeStyle;rounded=0;orthogonalLoop=1;jettySize=auto;html=1;entryX=0;entryY=0.5;entryDx=0;entryDy=0;" edge="1" parent="1" source="_PZYunoZqGTAglqlT3PF-23" target="_PZYunoZqGTAglqlT3PF-15">
          <mxGeometry relative="1" as="geometry" />
        </mxCell>
        <mxCell id="_PZYunoZqGTAglqlT3PF-26" value="" style="group" vertex="1" connectable="0" parent="1">
          <mxGeometry x="520" y="490" width="190" height="150" as="geometry" />
        </mxCell>
        <mxCell id="_PZYunoZqGTAglqlT3PF-23" value="DropCopy configs" style="shape=document;whiteSpace=wrap;html=1;boundedLbl=1;labelPosition=center;verticalLabelPosition=top;align=center;verticalAlign=bottom;" vertex="1" parent="_PZYunoZqGTAglqlT3PF-26">
          <mxGeometry width="190" height="150" as="geometry" />
        </mxCell>
        <mxCell id="_PZYunoZqGTAglqlT3PF-25" value="ExecID2_tag = 5100" style="text;html=1;strokeColor=none;fillColor=none;align=center;verticalAlign=middle;whiteSpace=wrap;rounded=0;" vertex="1" parent="_PZYunoZqGTAglqlT3PF-26">
          <mxGeometry x="28.75" y="40" width="132.5" height="30" as="geometry" />
        </mxCell>
        <mxCell id="_PZYunoZqGTAglqlT3PF-27" value="Risk" style="rounded=1;whiteSpace=wrap;html=1;" vertex="1" parent="1">
          <mxGeometry x="1090" y="230" width="120" height="60" as="geometry" />
        </mxCell>
        <mxCell id="_PZYunoZqGTAglqlT3PF-28" value="UI Proxy" style="rounded=1;whiteSpace=wrap;html=1;" vertex="1" parent="1">
          <mxGeometry x="1090" y="370" width="120" height="60" as="geometry" />
        </mxCell>
        <mxCell id="_PZYunoZqGTAglqlT3PF-29" value="Taker" style="rounded=1;whiteSpace=wrap;html=1;" vertex="1" parent="1">
          <mxGeometry x="1090" y="490" width="120" height="60" as="geometry" />
        </mxCell>
        <mxCell id="_PZYunoZqGTAglqlT3PF-30" style="rounded=0;orthogonalLoop=1;jettySize=auto;html=1;entryX=0;entryY=0.5;entryDx=0;entryDy=0;" edge="1" parent="1" source="_PZYunoZqGTAglqlT3PF-9" target="_PZYunoZqGTAglqlT3PF-29">
          <mxGeometry relative="1" as="geometry" />
        </mxCell>
        <mxCell id="_PZYunoZqGTAglqlT3PF-31" style="edgeStyle=none;rounded=0;orthogonalLoop=1;jettySize=auto;html=1;entryX=0;entryY=0.5;entryDx=0;entryDy=0;" edge="1" parent="1" source="_PZYunoZqGTAglqlT3PF-9" target="_PZYunoZqGTAglqlT3PF-28">
          <mxGeometry relative="1" as="geometry" />
        </mxCell>
        <mxCell id="_PZYunoZqGTAglqlT3PF-32" style="edgeStyle=none;rounded=0;orthogonalLoop=1;jettySize=auto;html=1;entryX=0;entryY=0.5;entryDx=0;entryDy=0;" edge="1" parent="1" source="_PZYunoZqGTAglqlT3PF-9" target="_PZYunoZqGTAglqlT3PF-27">
          <mxGeometry relative="1" as="geometry" />
        </mxCell>
        <mxCell id="_PZYunoZqGTAglqlT3PF-35" style="edgeStyle=none;rounded=0;orthogonalLoop=1;jettySize=auto;html=1;" edge="1" parent="1" source="_PZYunoZqGTAglqlT3PF-33" target="_PZYunoZqGTAglqlT3PF-29">
          <mxGeometry relative="1" as="geometry" />
        </mxCell>
        <mxCell id="_PZYunoZqGTAglqlT3PF-33" value="Taker configs" style="shape=document;whiteSpace=wrap;html=1;boundedLbl=1;labelPosition=right;verticalLabelPosition=middle;align=left;verticalAlign=middle;" vertex="1" parent="1">
          <mxGeometry x="1090" y="610" width="180" height="130" as="geometry" />
        </mxCell>
        <mxCell id="_PZYunoZqGTAglqlT3PF-34" value="&lt;div&gt;TAKER_LEI = YYYY&lt;/div&gt;&lt;div&gt;ExecID2_tag= 5200&lt;br&gt;&lt;/div&gt;" style="text;html=1;strokeColor=none;fillColor=none;align=center;verticalAlign=middle;whiteSpace=wrap;rounded=0;" vertex="1" parent="1">
          <mxGeometry x="1115" y="640" width="130" height="30" as="geometry" />
        </mxCell>
        <mxCell id="_PZYunoZqGTAglqlT3PF-36" value="FIX" style="ellipse;shape=cloud;whiteSpace=wrap;html=1;labelPosition=center;verticalLabelPosition=top;align=center;verticalAlign=bottom;" vertex="1" parent="1">
          <mxGeometry x="1300" y="460" width="170" height="120" as="geometry" />
        </mxCell>
        <mxCell id="_PZYunoZqGTAglqlT3PF-37" value="Text" style="text;html=1;strokeColor=none;fillColor=none;align=center;verticalAlign=middle;whiteSpace=wrap;rounded=0;" vertex="1" parent="1">
          <mxGeometry x="1355" y="315" width="60" height="30" as="geometry" />
        </mxCell>
      </root>
    </mxGraphModel>
  </diagram>
</mxfile>
